<svg width="139" height="13" viewBox="0 0 139 13" fill="none" xmlns="http://www.w3.org/2000/svg">
<path d="M0.977813 6.352V0.559999H15.0578V6.352H12.4658V2.64H8.97781V12H6.41781V2.64H3.56981V6.352H0.977813ZM16.5254 12.08V10L25.7254 10.016C26.1948 10.016 26.5521 9.90933 26.7974 9.696C27.0534 9.472 27.1814 9.11467 27.1814 8.624C27.1814 8.13333 27.0534 7.78133 26.7974 7.568C26.5521 7.344 26.1948 7.232 25.7254 7.232H19.9974C18.8134 7.232 17.8908 6.94933 17.2294 6.384C16.5788 5.808 16.2534 4.96533 16.2534 3.856C16.2534 2.74667 16.5788 1.90933 17.2294 1.344C17.8908 0.768 18.8134 0.48 19.9974 0.48H28.9894V2.56L20.2694 2.544C19.8108 2.544 19.4534 2.65067 19.1974 2.864C18.9414 3.06667 18.8134 3.39733 18.8134 3.856C18.8134 4.31467 18.9414 4.65067 19.1974 4.864C19.4534 5.06667 19.8108 5.168 20.2694 5.168H25.9974C27.1814 5.168 28.0988 5.46133 28.7494 6.048C29.4108 6.624 29.7414 7.48267 29.7414 8.624C29.7414 9.75467 29.4108 10.6133 28.7494 11.2C28.0988 11.7867 27.1814 12.08 25.9974 12.08H16.5254ZM30.3866 12L35.5386 0.559999H39.4906L44.6426 12H41.8586L40.7706 9.584H34.2586L33.1706 12H30.3866ZM35.1866 7.504H39.8426L37.6186 2.56H37.4106L35.1866 7.504ZM45.9247 12V0.559999H55.5087C56.6927 0.559999 57.61 0.858666 58.2607 1.456C58.922 2.05333 59.2527 2.96 59.2527 4.176C59.2527 5.21067 59.0127 6.02133 58.5327 6.608C58.0527 7.19467 57.37 7.56267 56.4847 7.712L59.1247 12H56.2127L53.7647 7.792H48.4847V12H45.9247ZM55.2047 2.64H48.4847V5.696L55.2047 5.712C55.674 5.712 56.0314 5.59467 56.2767 5.36C56.5327 5.12533 56.6607 4.73067 56.6607 4.176C56.6607 3.61067 56.5327 3.216 56.2767 2.992C56.0314 2.75733 55.674 2.64 55.2047 2.64ZM60.2147 12L65.3667 0.559999H69.3187L74.4707 12H71.6867L70.5987 9.584H64.0867L62.9987 12H60.2147ZM65.0147 7.504H69.6707L67.4467 2.56H67.2387L65.0147 7.504ZM74.6322 8.256V6.416H79.5282V8.256H74.6322ZM80.9161 12.08V10L90.1161 10.016C90.5854 10.016 90.9427 9.90933 91.1881 9.696C91.4441 9.472 91.5721 9.11467 91.5721 8.624C91.5721 8.13333 91.4441 7.78133 91.1881 7.568C90.9427 7.344 90.5854 7.232 90.1161 7.232H84.3881C83.2041 7.232 82.2814 6.94933 81.6201 6.384C80.9694 5.808 80.6441 4.96533 80.6441 3.856C80.6441 2.74667 80.9694 1.90933 81.6201 1.344C82.2814 0.768 83.2041 0.48 84.3881 0.48H93.3801V2.56L84.6601 2.544C84.2014 2.544 83.8441 2.65067 83.5881 2.864C83.3321 3.06667 83.2041 3.39733 83.2041 3.856C83.2041 4.31467 83.3321 4.65067 83.5881 4.864C83.8441 5.06667 84.2014 5.168 84.6601 5.168H90.3881C91.5721 5.168 92.4894 5.46133 93.1401 6.048C93.8014 6.624 94.1321 7.48267 94.1321 8.624C94.1321 9.75467 93.8014 10.6133 93.1401 11.2C92.4894 11.7867 91.5721 12.08 90.3881 12.08H80.9161ZM95.7372 12V0.559999H108.281V2.64H98.2972V5.168H107.353V7.248H98.2972V9.92H108.281V12H95.7372ZM110.034 12V0.559999H119.618C120.802 0.559999 121.719 0.858666 122.37 1.456C123.031 2.05333 123.362 2.96 123.362 4.176C123.362 5.21067 123.122 6.02133 122.642 6.608C122.162 7.19467 121.479 7.56267 120.594 7.712L123.234 12H120.322L117.874 7.792H112.594V12H110.034ZM119.314 2.64H112.594V5.696L119.314 5.712C119.783 5.712 120.141 5.59467 120.386 5.36C120.642 5.12533 120.77 4.73067 120.77 4.176C120.77 3.61067 120.642 3.216 120.386 2.992C120.141 2.75733 119.783 2.64 119.314 2.64ZM124.324 12L129.476 0.559999H133.428L138.58 12H135.796L134.708 9.584H128.196L127.108 12H124.324ZM129.124 7.504H133.78L131.556 2.56H131.348L129.124 7.504Z" fill="#0063CB"/>
</svg>
